<svg xmlns="http://www.w3.org/2000/svg" width="1024" height="1024" viewBox="0 0 1024 1024"><defs></defs><rect x="0.000" y="0.000" width="204.800" height="204.800" fill="#F3C6C8" fill-opacity="1"/><rect x="204.800" y="0.000" width="204.800" height="204.800" fill="#F3C6C8" fill-opacity="1"/><rect x="409.600" y="0.000" width="204.800" height="204.800" fill="#F3C6C8" fill-opacity="1"/><rect x="614.400" y="0.000" width="204.800" height="204.800" fill="#B9D7F1" fill-opacity="1"/><rect x="819.200" y="0.000" width="204.800" height="204.800" fill="#B9D7F1" fill-opacity="1"/><rect x="0.000" y="204.800" width="204.800" height="204.800" fill="#F3C6C8" fill-opacity="1"/><rect x="204.800" y="204.800" width="204.800" height="204.800" fill="#F6E2A9" fill-opacity="1"/><rect x="409.600" y="204.800" width="204.800" height="204.800" fill="#F6E2A9" fill-opacity="1"/><rect x="614.400" y="204.800" width="204.800" height="204.800" fill="#B9D7F1" fill-opacity="1"/><rect x="819.200" y="204.800" width="204.800" height="204.800" fill="#B9D7F1" fill-opacity="1"/><rect x="0.000" y="409.600" width="204.800" height="204.800" fill="#F6E2A9" fill-opacity="1"/><rect x="204.800" y="409.600" width="204.800" height="204.800" fill="#F6E2A9" fill-opacity="1"/><rect x="409.600" y="409.600" width="204.800" height="204.800" fill="#C7E7C1" fill-opacity="1"/><rect x="614.400" y="409.600" width="204.800" height="204.800" fill="#C7E7C1" fill-opacity="1"/><rect x="819.200" y="409.600" width="204.800" height="204.800" fill="#B9D7F1" fill-opacity="1"/><rect x="0.000" y="614.400" width="204.800" height="204.800" fill="#DCCEF2" fill-opacity="1"/><rect x="204.800" y="614.400" width="204.800" height="204.800" fill="#F6E2A9" fill-opacity="1"/><rect x="409.600" y="614.400" width="204.800" height="204.800" fill="#C7E7C1" fill-opacity="1"/><rect x="614.400" y="614.400" width="204.800" height="204.800" fill="#C7E7C1" fill-opacity="1"/><rect x="819.200" y="614.400" width="204.800" height="204.800" fill="#C7E7C1" fill-opacity="1"/><rect x="0.000" y="819.200" width="204.800" height="204.800" fill="#DCCEF2" fill-opacity="1"/><rect x="204.800" y="819.200" width="204.800" height="204.800" fill="#DCCEF2" fill-opacity="1"/><rect x="409.600" y="819.200" width="204.800" height="204.800" fill="#DCCEF2" fill-opacity="1"/><rect x="614.400" y="819.200" width="204.800" height="204.800" fill="#C7E7C1" fill-opacity="1"/><rect x="819.200" y="819.200" width="204.800" height="204.800" fill="#C7E7C1" fill-opacity="1"/><rect x="201.728" y="0.000" width="6.144" height="1024.000" fill="#23263A" fill-opacity="0.18"/><rect x="0.000" y="201.728" width="1024.000" height="6.144" fill="#23263A" fill-opacity="0.18"/><rect x="406.528" y="0.000" width="6.144" height="1024.000" fill="#23263A" fill-opacity="0.18"/><rect x="0.000" y="406.528" width="1024.000" height="6.144" fill="#23263A" fill-opacity="0.18"/><rect x="611.328" y="0.000" width="6.144" height="1024.000" fill="#23263A" fill-opacity="0.18"/><rect x="0.000" y="611.328" width="1024.000" height="6.144" fill="#23263A" fill-opacity="0.18"/><rect x="816.128" y="0.000" width="6.144" height="1024.000" fill="#23263A" fill-opacity="0.18"/><rect x="0.000" y="816.128" width="1024.000" height="6.144" fill="#23263A" fill-opacity="0.18"/><rect x="193.536" y="193.536" width="227.328" height="22.528" fill="#23263A" fill-opacity="1"/><rect x="603.136" y="-11.264" width="22.528" height="227.328" fill="#23263A" fill-opacity="1"/><rect x="398.336" y="193.536" width="227.328" height="22.528" fill="#23263A" fill-opacity="1"/><rect x="193.536" y="193.536" width="22.528" height="227.328" fill="#23263A" fill-opacity="1"/><rect x="-11.264" y="398.336" width="227.328" height="22.528" fill="#23263A" fill-opacity="1"/><rect x="603.136" y="193.536" width="22.528" height="227.328" fill="#23263A" fill-opacity="1"/><rect x="398.336" y="398.336" width="227.328" height="22.528" fill="#23263A" fill-opacity="1"/><rect x="603.136" y="398.336" width="227.328" height="22.528" fill="#23263A" fill-opacity="1"/><rect x="-11.264" y="603.136" width="227.328" height="22.528" fill="#23263A" fill-opacity="1"/><rect x="398.336" y="398.336" width="22.528" height="227.328" fill="#23263A" fill-opacity="1"/><rect x="807.936" y="398.336" width="22.528" height="227.328" fill="#23263A" fill-opacity="1"/><rect x="807.936" y="603.136" width="227.328" height="22.528" fill="#23263A" fill-opacity="1"/><rect x="193.536" y="603.136" width="22.528" height="227.328" fill="#23263A" fill-opacity="1"/><rect x="398.336" y="603.136" width="22.528" height="227.328" fill="#23263A" fill-opacity="1"/><rect x="193.536" y="807.936" width="227.328" height="22.528" fill="#23263A" fill-opacity="1"/><rect x="398.336" y="807.936" width="227.328" height="22.528" fill="#23263A" fill-opacity="1"/><rect x="603.136" y="807.936" width="22.528" height="227.328" fill="#23263A" fill-opacity="1"/><g transform="translate(140.800 177.920) scale(37.1200)"><path d="M2 6.6 6.4 9.6 10 3.4 13.6 9.6 18 6.6 16.5 16.4a1 1 0 0 1-1 .85H4.5a1 1 0 0 1-1-.85z" fill="#1B1D2A" fill-opacity="0.35" stroke="#1B1D2A" stroke-opacity="0.35" stroke-width="1.15" stroke-linejoin="round"/></g><g transform="translate(140.800 144.512) scale(37.1200)"><path d="M2 6.6 6.4 9.6 10 3.4 13.6 9.6 18 6.6 16.5 16.4a1 1 0 0 1-1 .85H4.5a1 1 0 0 1-1-.85z" fill="#EFB437" stroke="#1B1D2A" stroke-width="1.15" stroke-linejoin="round"/><path d="M3.9 13.2H16.1" stroke="#D99A17" stroke-width="1.1" stroke-linecap="round"/><circle cx="10" cy="3.4" r="1.25" fill="#FFFFFF" stroke="#1B1D2A" stroke-width="0.8"/><circle cx="2" cy="6.6" r="1.05" fill="#FFFFFF" stroke="#1B1D2A" stroke-width="0.75"/><circle cx="18" cy="6.6" r="1.05" fill="#FFFFFF" stroke="#1B1D2A" stroke-width="0.75"/></g></svg>
